<?xml version="1.0" encoding="utf-8"?>
<!-- Generator: Adobe Illustrator 19.0.0, SVG Export Plug-In . SVG Version: 6.00 Build 0)  -->
<svg version="1.1" id="Layer_1" xmlns="http://www.w3.org/2000/svg" xmlns:xlink="http://www.w3.org/1999/xlink" x="0px" y="0px"
	 viewBox="0 0 512 512" style="enable-background:new 0 0 512 512;" xml:space="preserve">
<style type="text/css">
	.st0{fill:#A51D49;}
	.st1{fill:#C61E54;}
	.st2{fill:#D31E47;}
	.st3{fill:#D21F44;}
	.st4{fill:#E01B51;}
	.st5{fill:#E21D38;}
	.st6{fill:#EF4043;}
	.st7{fill:#C71F49;}
	.st8{fill:#EC1F4B;}
	.st9{fill:#EC1D57;}
	.st10{fill:#86153B;}
	.st11{fill:#7D1543;}
</style>
<g>
	<polygon id="XMLID_14_" class="st0" points="512,102.4 512,102.4 384,204.8 384,204.8 384,0 384,0 	"/>
	<polygon id="XMLID_13_" class="st1" points="384,409.6 384,409.6 256,512 256,512 256,307.2 256,307.2 	"/>
	<polygon id="XMLID_12_" class="st1" points="256,102.4 384,0 384,204.8 	"/>
	<polygon id="XMLID_11_" class="st2" points="384,204.8 256,307.2 256,307.2 256,102.4 256,102.4 384,204.8 	"/>
	<polygon id="XMLID_10_" class="st3" points="128,204.8 128,204.8 0,307.2 0,307.2 0,102.4 0,102.4 	"/>
	<polygon id="XMLID_9_" class="st4" points="256,102.4 128,204.8 128,204.8 128,0 128,0 256,102.4 	"/>
	<polygon id="XMLID_8_" class="st5" points="256,307.2 256,307.2 128,409.6 128,409.6 128,204.8 128,204.8 	"/>
	<polygon id="XMLID_7_" class="st6" points="128,409.6 256,307.2 256,512 	"/>
	<polygon id="XMLID_6_" class="st7" points="128,204.8 256,102.4 256,307.2 	"/>
	<polygon id="XMLID_5_" class="st8" points="0,307.2 128,204.8 128,409.6 	"/>
	<polygon id="XMLID_4_" class="st9" points="0,102.4 128,0 128,204.8 	"/>
	<polygon id="XMLID_3_" class="st10" points="384,204.8 512,102.4 512,307.2 	"/>
	<polygon id="XMLID_2_" class="st11" points="512,307.2 384,409.6 384,409.6 384,204.8 384,204.8 512,307.2 	"/>
	<polygon id="XMLID_1_" class="st0" points="256,307.2 384,204.8 384,409.6 	"/>
</g>
</svg>
